HIERARCHY
ROOT SpineBase
{
  OFFSET 0.000000 0.000000 0.000000
  CHANNELS 6 Xposition Yposition Zposition Zrotation Xrotation Yrotation
  JOINT SpineMid
  {
    OFFSET 0.000000 31.650363 0.000000
    CHANNELS 3 Zrotation Xrotation Yrotation
    JOINT SpineShoulder
    {
      OFFSET -0.038748 23.479783 -0.682570
      CHANNELS 3 Zrotation Xrotation Yrotation
      JOINT Neck
      {
        OFFSET -0.040101 7.759357 -0.528617
        CHANNELS 3 Zrotation Xrotation Yrotation
        JOINT Head
        {
          OFFSET -3.718279 13.035937 1.939668
          CHANNELS 3 Zrotation Xrotation Yrotation
          End Site
          {
            OFFSET 0 0 0
          }
        }
      }
      JOINT ShoulderLeft
      {
        OFFSET -14.708859 -5.274416 10.232869
        CHANNELS 3 Zrotation Xrotation Yrotation
        JOINT ElbowLeft
        {
          OFFSET -2.445911 -30.304792 2.017423
          CHANNELS 3 Zrotation Xrotation Yrotation
          JOINT WristLeft
          {
            OFFSET -0.892769 -23.145821 -1.883310
            CHANNELS 3 Zrotation Xrotation Yrotation
            JOINT HandLeft
            {
              OFFSET 0.991612 -4.668700 -0.287031
              CHANNELS 3 Zrotation Xrotation Yrotation
              JOINT HandTipLeft
              {
                OFFSET 0.510092 -7.340541 0.112238
                CHANNELS 3 Zrotation Xrotation Yrotation
                End Site
                {
                  OFFSET 0 0 0
                }
              }
              JOINT ThumbLeft
              {
                OFFSET 1.499216 -1.000018 -4.224102
                CHANNELS 3 Zrotation Xrotation Yrotation
                End Site
                {
                  OFFSET 0 0 0
                }
              }
            }
          }
        }
      }
      JOINT ShoulderRight
      {
        OFFSET 11.765221 -3.951649 -10.519527
        CHANNELS 3 Zrotation Xrotation Yrotation
        JOINT ElbowRight
        {
          OFFSET 7.778066 -28.818029 -4.513043
          CHANNELS 3 Zrotation Xrotation Yrotation
          JOINT WristRight
          {
            OFFSET 1.224044 -23.296045 -5.809293
            CHANNELS 3 Zrotation Xrotation Yrotation
            JOINT HandRight
            {
              OFFSET 0.509356 -6.132100 -0.544972
              CHANNELS 3 Zrotation Xrotation Yrotation
              JOINT HandTipRight
              {
                OFFSET 0.971528 -6.131099 -4.913775
                CHANNELS 3 Zrotation Xrotation Yrotation
                End Site
                {
                  OFFSET 0 0 0
                }
              }
              JOINT ThumbRight
              {
                OFFSET -2.563898 -2.230413 0.202520
                CHANNELS 3 Zrotation Xrotation Yrotation
                End Site
                {
                  OFFSET 0 0 0
                }
              }
            }
          }
        }
      }
    }
  }
  JOINT HipLeft
  {
    OFFSET -6.367042 -0.015590 0.178854
    CHANNELS 3 Zrotation Xrotation Yrotation
    JOINT KneeLeft
    {
      OFFSET -1.171500 -37.619247 5.107910
      CHANNELS 3 Zrotation Xrotation Yrotation
      JOINT AnkleLeft
      {
        OFFSET -0.054318 -35.806369 9.607606
        CHANNELS 3 Zrotation Xrotation Yrotation
        JOINT FootLeft
        {
          OFFSET -4.189487 -7.043700 -3.974009
          CHANNELS 3 Zrotation Xrotation Yrotation
          End Site
          {
            OFFSET 0 0 0
          }
        }
      }
    }
  }
  JOINT HipRight
  {
    OFFSET 5.314360 1.609827 -7.328337
    CHANNELS 3 Zrotation Xrotation Yrotation
    JOINT KneeRight
    {
      OFFSET 8.185434 -38.428894 -2.397183
      CHANNELS 3 Zrotation Xrotation Yrotation
      JOINT AnkleRight
      {
        OFFSET 8.878511 -35.532986 7.499633
        CHANNELS 3 Zrotation Xrotation Yrotation
        JOINT FootRight
        {
          OFFSET -0.298103 -7.456782 -7.156724
          CHANNELS 3 Zrotation Xrotation Yrotation
          End Site
          {
            OFFSET 0 0 0
          }
        }
      }
    }
  }
}
MOTION
Frames: 10
Frame Time: 0.033333
51.759155 81.958618 346.967436 -0.000000 0.000000 32.727307 -0.000000 0.000000 -32.727307 -0.000000 0.000000 0.000000 -0.000000 0.000000 0.000000 0.000000 0.000000 0.000000 -0.000000 0.000000 0.000000 -0.000000 0.000000 0.000000 -0.000000 0.000000 0.000000 -0.000000 0.000000 0.000000 0.000000 0.000000 0.000000 0.000000 0.000000 0.000000 -0.000000 0.000000 0.000000 -0.000000 0.000000 0.000000 -0.000000 0.000000 0.000000 -0.000000 0.000000 0.000000 0.000000 0.000000 0.000000 0.000000 0.000000 0.000000 -0.000000 0.000000 -32.727307 -0.000000 0.000000 0.000000 -0.000000 0.000000 0.000000 0.000000 0.000000 0.000000 -0.000000 0.000000 -32.727307 -0.000000 0.000000 0.000000 -0.000000 0.000000 0.000000 0.000000 0.000000 0.000000
51.802050 81.935026 347.075206 -0.002484 -0.096749 32.645981 0.054282 0.080125 -32.646021 -0.000000 0.000000 0.000000 -0.000000 0.000000 0.000000 0.000000 0.000000 0.000000 -0.000000 0.000000 0.000000 -0.000000 0.000000 0.000000 -5.967772 1.446417 0.757648 5.950219 -1.517246 -0.603389 0.000000 0.000000 0.000000 0.000000 0.000000 0.000000 -0.000000 0.000000 0.000000 -0.000000 0.000000 0.000000 -0.258833 -1.190401 -0.078656 0.257254 1.190743 0.073294 0.000000 0.000000 0.000000 0.000000 0.000000 0.000000 0.054282 0.080125 -32.646021 -0.000000 0.000000 0.000000 -2.006790 2.683500 -0.407426 0.000000 0.000000 0.000000 0.054282 0.080125 -32.646021 -0.000000 0.000000 0.000000 -0.000000 0.000000 0.000000 0.000000 0.000000 0.000000
51.858323 81.918911 347.156834 0.007478 -0.168094 32.569953 0.084188 0.145684 -32.570049 -0.000000 0.000000 0.000000 -0.000000 0.000000 0.000000 0.000000 0.000000 0.000000 -0.000000 0.000000 0.000000 -0.000000 0.000000 0.000000 -10.841800 2.519631 1.470506 9.468312 -2.469589 -1.033926 0.000000 0.000000 0.000000 0.000000 0.000000 0.000000 -0.000000 0.000000 0.000000 0.496217 -0.862353 -0.165592 -1.117421 -1.119865 0.062588 0.686710 2.856070 0.180156 0.000000 0.000000 0.000000 0.000000 0.000000 0.000000 0.084188 0.145684 -32.570049 -0.000000 0.000000 0.000000 -3.621098 4.882898 -0.678809 0.000000 0.000000 0.000000 0.084188 0.145684 -32.570049 -0.000000 0.000000 0.000000 -0.000000 0.000000 0.000000 0.000000 0.000000 0.000000
51.927972 81.910273 347.212319 0.029883 -0.214075 32.499120 0.089817 0.196606 -32.499219 -0.000000 0.000000 0.000000 -0.000000 0.000000 0.000000 0.000000 0.000000 0.000000 -0.000000 0.000000 0.000000 -0.827388 0.453086 0.053087 -14.078158 2.893861 1.955178 12.965947 -3.120461 -1.292562 0.000000 0.000000 0.000000 0.000000 0.000000 0.000000 -0.000000 0.000000 0.000000 0.711730 -1.204648 -0.233837 -1.802655 -1.191227 0.147721 1.124144 3.613887 0.242839 0.000000 0.000000 0.000000 0.000000 0.000000 0.000000 0.089817 0.196606 -32.499219 -0.000000 0.000000 0.000000 -4.868276 6.614014 -0.858791 0.000000 0.000000 0.000000 0.089817 0.196606 -32.499219 -0.000000 0.000000 0.000000 -0.000000 0.000000 0.000000 0.000000 0.000000 0.000000
52.010998 81.909114 347.241662 0.064736 -0.234714 32.433415 0.071244 0.232822 -32.433427 -0.000000 0.000000 0.000000 -0.000000 0.000000 0.000000 0.000000 0.000000 0.000000 -0.000000 0.000000 0.000000 -1.275630 0.715289 0.084093 -17.119768 3.261113 2.405469 16.015957 -3.453175 -1.445125 0.000000 0.000000 0.000000 0.000000 0.000000 0.000000 -0.000000 0.000000 0.000000 0.903730 -1.483568 -0.292443 -2.573622 -0.963117 0.270095 1.627329 3.943911 0.294143 0.000000 0.000000 0.000000 0.000000 0.000000 0.000000 0.071244 0.232822 -32.433427 -0.000000 0.000000 0.000000 -5.766323 7.893559 -0.980596 0.000000 0.000000 0.000000 0.071244 0.232822 -32.433427 -0.000000 0.000000 0.000000 0.013381 0.842426 -0.046293 0.000000 0.000000 0.000000
52.107401 81.915432 347.244862 0.112056 -0.230013 32.372799 0.028515 0.254262 -32.372638 -0.000000 0.000000 0.000000 -0.000000 0.000000 0.000000 0.000000 0.000000 0.000000 -0.000000 0.000000 0.000000 -1.810272 1.032856 0.123622 -19.678407 3.435207 2.752622 18.822106 -3.521461 -1.516656 0.000000 0.000000 0.000000 0.000000 0.000000 0.000000 0.429716 -0.690317 -0.251010 0.645608 -1.003663 -0.098192 -3.434992 -0.444528 0.433483 2.200095 3.850392 0.338195 0.000000 0.000000 0.000000 0.000000 0.000000 0.000000 0.028515 0.254262 -32.372638 -0.000000 0.000000 0.000000 -6.324999 8.732947 -1.067594 0.000000 0.000000 0.000000 0.028515 0.254262 -32.372638 -0.000000 0.000000 0.000000 0.144456 0.792161 -0.170190 0.000000 0.000000 0.000000
52.225292 81.934635 347.215525 0.193518 -0.180652 32.287254 -0.067100 0.256089 -32.286799 -0.000000 0.000000 0.000000 -0.000000 0.000000 0.000000 0.000000 0.000000 0.000000 -0.000000 0.000000 0.000000 -2.612220 1.530620 0.188074 -22.785433 3.375197 3.061373 22.803861 -2.456784 -1.424262 0.000000 0.000000 0.000000 0.000000 0.000000 0.000000 0.473178 -0.814495 -0.290576 0.620118 -1.161658 -0.075926 -4.048515 1.032271 0.659753 3.184383 4.580803 0.179913 0.000000 0.000000 0.000000 0.000000 0.000000 0.000000 -0.067100 0.256089 -32.286799 -0.000000 0.000000 0.000000 -6.831470 10.053819 -1.414311 0.000000 0.000000 0.000000 -0.067100 0.256089 -32.286799 -0.000000 0.000000 0.000000 0.503197 0.766336 -0.513743 0.000000 0.000000 0.000000
52.344325 81.958264 347.152341 0.260945 -0.105255 32.228618 -0.164609 0.228199 -32.228051 -0.000000 0.000000 0.000000 -0.000000 0.000000 0.000000 0.000000 0.000000 0.000000 -0.000000 0.000000 0.000000 -3.444571 2.055549 0.262192 -25.581204 2.849539 3.087935 26.304662 -3.564202 -1.549770 0.000000 0.000000 0.000000 0.000000 0.000000 0.000000 0.502423 -0.941668 -0.328751 0.780279 -1.051684 -0.086634 -5.708527 2.060318 1.006456 4.232849 2.214639 0.127652 0.000000 0.000000 0.000000 0.000000 0.000000 0.000000 -0.164609 0.228199 -32.228051 -0.000000 0.000000 0.000000 -6.843679 10.415943 -1.584169 0.000000 0.000000 0.000000 -0.164609 0.228199 -32.228051 -0.000000 0.000000 0.000000 0.995712 -0.112808 -0.951386 0.000000 0.000000 0.000000
52.471413 81.979569 347.092040 0.313650 -0.054116 32.163868 -0.236707 0.212779 -32.163281 -0.000000 0.000000 0.000000 -0.000000 0.000000 0.000000 0.000000 0.000000 0.000000 -0.000000 0.000000 0.000000 -4.245329 2.533545 0.340669 -27.306410 2.347019 2.984331 29.102954 -0.803006 -1.285599 0.000000 0.000000 0.000000 0.000000 0.000000 0.000000 0.495772 -1.043491 -0.354866 0.975568 -0.800001 -0.103602 -6.896992 3.036237 1.304732 5.590640 1.824456 -0.177985 0.000000 0.000000 0.000000 0.000000 0.000000 0.000000 -0.236707 0.212779 -32.163281 -0.000000 0.000000 0.000000 -6.395890 9.921141 -1.614892 0.000000 0.000000 0.000000 -0.236707 0.212779 -32.163281 -0.000000 0.000000 0.000000 1.017391 -0.202951 -0.968529 0.000000 0.000000 0.000000
52.609571 82.004163 346.999095 0.383148 0.023722 32.169004 -0.336959 0.183914 -32.168543 -0.000000 0.000000 0.000000 0.290425 -0.815772 -0.273927 0.000000 0.000000 0.000000 -0.000000 0.000000 0.000000 -4.964446 2.949126 0.416720 -27.857500 2.295986 3.005649 29.913221 -2.684595 -1.451705 0.000000 0.000000 0.000000 0.000000 0.000000 0.000000 0.464936 -1.117902 -0.370169 1.223711 -0.561519 -0.139277 -8.263737 3.402055 1.560260 4.122433 -4.515946 0.740278 0.000000 0.000000 0.000000 0.000000 0.000000 0.000000 -0.336959 0.183914 -32.168543 -0.000000 0.000000 0.000000 -5.800517 8.671852 -1.353422 0.000000 0.000000 0.000000 -0.336959 0.183914 -32.168543 -0.000000 0.000000 0.000000 0.791469 -0.217696 -0.750992 0.000000 0.000000 0.000000
